<?xml version="1.0" encoding="utf-8"?>
<!-- Generator: Adobe Illustrator 18.1.1, SVG Export Plug-In . SVG Version: 6.00 Build 0)  -->
<!DOCTYPE svg PUBLIC "-//W3C//DTD SVG 1.1//EN" "http://www.w3.org/Graphics/SVG/1.1/DTD/svg11.dtd">
<svg version="1.1" id="_x32_" xmlns="http://www.w3.org/2000/svg" xmlns:xlink="http://www.w3.org/1999/xlink" x="0px" y="0px"
	 width="40px" height="40px" viewBox="0 0 512 512" style="enable-background:new 0 0 512 512;" xml:space="preserve">
<style type="text/css">
	.st0{fill:#4B4B4B;}
</style>
<g>
	<path class="st0" d="M378.41,0H133.591C86.242,0,47.7,38.542,47.7,85.899v340.22C47.7,473.476,86.242,512,133.591,512h205.686
		h13.183l9.31-9.301l93.238-93.229l9.292-9.31v-13.174V85.899C464.3,38.542,425.776,0,378.41,0z M206.35,177.035
		c0-27.426,22.216-49.659,49.658-49.659c27.426,0,49.659,22.233,49.659,49.659v14.087c0,27.426-22.232,49.666-49.659,49.666
		c-27.443,0-49.658-22.24-49.658-49.666V177.035z M256.008,335.06h-90.736c0-41.269,24.213-75.278,70.484-82.877
		c6.374,2.127,13.166,3.308,20.252,3.308c7.069,0,13.861-1.181,20.235-3.308c46.272,7.599,70.484,41.608,70.484,82.877H256.008z
		 M339.277,480.197v-48.139c0-24.89,20.2-45.073,45.073-45.073h48.147L339.277,480.197z"/>
</g>
</svg>
